<?xml version="1.0" encoding="utf-8"?>
<!-- Generator: Adobe Illustrator 21.1.0, SVG Export Plug-In . SVG Version: 6.00 Build 0)  -->
<svg version="1.1" id="Layer_1" xmlns="http://www.w3.org/2000/svg" xmlns:xlink="http://www.w3.org/1999/xlink" x="0px" y="0px"
	 viewBox="0 0 34 34" style="enable-background:new 0 0 34 34;" xml:space="preserve">
<style type="text/css">
	.st0{fill:#353535;}
</style>
<path class="st0" d="M21.4,29h-8.9L9,20h16L21.4,29z M13.4,22h-1.5l2,5h6.2l2-5h-1.5L19,25.5V22h-1.2L17,25.5L16.2,22H15v3.5
	L13.4,22z M24.4,19H9.6C8.5,18.3,8,17.2,8,16c0-1.6,1.3-3.2,3-3.8c-0.5-4.6,5.6-3.4,5-7.2c1.3,0,3.9,0.3,4.4,3.5
	c1.8,0.3,3,1.8,2.9,3.9c1.7,0.5,2.7,2,2.7,3.6C26,17.2,25.5,18.2,24.4,19z M12,14.1c-1.3-0.2-2.6,1.9-1.7,2.9h13.4
	c0.8-1,0-3.4-2.6-2.8c1.3-2.6-0.9-4.6-2.8-3.8c0.4-0.9,0.3-2.4-0.6-3c-1.1,2.2-2.9,2.1-4,3.2c-1.7,1.6,0.7,4,3.5,4.4
	C15.6,15.3,12.9,15.5,12,14.1z"/>
<rect x="26.3" y="2.5" class="st0" width="2" height="7.5"/>
<rect x="26.3" y="2.5" transform="matrix(-1.836970e-16 1 -1 -1.836970e-16 33.5625 -21)" class="st0" width="2" height="7.5"/>
</svg>
