<?xml version="1.0" encoding="utf-8"?>
<!-- Generator: Adobe Illustrator 21.1.0, SVG Export Plug-In . SVG Version: 6.00 Build 0)  -->
<svg version="1.1" id="Layer_1" xmlns="http://www.w3.org/2000/svg" xmlns:xlink="http://www.w3.org/1999/xlink" x="0px" y="0px"
	 viewBox="0 0 24 24" style="enable-background:new 0 0 24 24;" xml:space="preserve">
<style type="text/css">
	.st0{fill:#353535;}
</style>
<path class="st0" d="M16.4,24H7.6L4,15h16L16.4,24z M8.4,17H6.9l2,5h6.2l2-5h-1.5L14,20.5V17h-1.2L12,20.5L11.2,17H10v3.5L8.4,17z
	 M19.4,14H4.6C3.5,13.3,3,12.2,3,11c0-1.6,1.3-3.2,3-3.8C5.5,2.6,11.6,3.9,11,0c1.3,0,3.9,0.3,4.4,3.5c1.8,0.3,3,1.8,2.9,3.9
	C20,7.9,21,9.4,21,11C21,12.2,20.5,13.2,19.4,14z M7,9.1C5.7,8.9,4.4,11.1,5.3,12h13.4c0.8-1,0-3.4-2.6-2.8c1.3-2.6-0.9-4.6-2.8-3.8
	c0.4-0.9,0.3-2.4-0.6-3c-1.1,2.2-2.9,2.1-4,3.2C6.9,7.2,9.2,9.6,12,10C10.6,10.3,7.9,10.5,7,9.1z"/>
</svg>
